<svg xmlns="http://www.w3.org/2000/svg" width="625px" height="306px" version="1.1"><defs/><path d="M 39.8 86 L 90.2 86 C 112.18 86 130 101.67 130 121 C 130 140.33 112.18 156 90.2 156 L 39.8 156 C 17.82 156 0 140.33 0 121 C 0 101.67 17.82 86 39.8 86 Z" fill="#ffffff" stroke="#000000" stroke-width="2" stroke-miterlimit="10"/><g text-anchor="middle" font-size="18px" font-family="Verdana" fill="#000000"><text x="65" y="117.75">Close</text><text x="65" y="141.15">Selected</text></g><path d="M 260 72 L 210 72 L 210 170 L 260 170" shape-rendering="crispEdges" fill="none" stroke="#000000" stroke-width="2" stroke-miterlimit="10"/><path d="M 160 121 L 210 121" shape-rendering="crispEdges" fill="none" stroke="#000000" stroke-width="2" stroke-miterlimit="10"/><path d="M 260 170 L 210 170 L 210 268 L 260 268" shape-rendering="crispEdges" fill="none" stroke="#000000" stroke-width="2" stroke-miterlimit="10"/><g font-size="14px" font-family="Verdana" fill="#000000"><text x="273" y="79.75">Yes</text></g><g font-size="14px" font-family="Verdana" fill="#000000"><text x="273" y="177.75">No</text></g><g font-size="14px" font-family="Verdana" fill="#000000"><text x="273" y="275.75">Cancel</text></g><path d="M 383.67 136 L 426.33 136 C 444.92 136 460 150.33 460 168 C 460 185.67 444.92 200 426.33 200 L 383.67 200 C 365.08 200 350 185.67 350 168 C 350 150.33 365.08 136 383.67 136 Z" fill="#ffffff" stroke="#000000" stroke-width="2" stroke-miterlimit="10"/><g text-anchor="middle" font-size="14px" font-family="Verdana" fill="#000000"><text x="405" y="164">Close</text><text x="405" y="182.2">Program</text></g><path d="M 383.67 236 L 426.33 236 C 444.92 236 460 251.67 460 271 C 460 290.33 444.92 306 426.33 306 L 383.67 306 C 365.08 306 350 290.33 350 271 C 350 251.67 365.08 236 383.67 236 Z" fill="#ffffff" stroke="#000000" stroke-width="2" stroke-miterlimit="10"/><g text-anchor="middle" font-size="14px" font-family="Verdana" fill="#000000"><text x="405" y="257.75">Return</text><text x="405" y="275.95">to</text><text x="405" y="294.15">Program</text></g><path d="M 348.88 168.98 L 341.94 172.6 L 343.63 169.07 L 341.82 165.6 Z" fill="#000000" stroke="#000000" stroke-miterlimit="10"/><path d="M 310 169.65 L 343.63 169.07" fill="none" stroke="#000000" stroke-miterlimit="10"/><path d="M 348.88 269.54 L 341.79 272.85 L 343.63 269.4 L 341.98 265.85 Z" fill="#000000" stroke="#000000" stroke-miterlimit="10"/><path d="M 310 268.52 L 343.63 269.4" fill="none" stroke="#000000" stroke-miterlimit="10"/><path d="M 407 44.2 L 453 70.01 C 453.63 70.48 454 71.21 454 72 C 454 72.78 453.63 73.51 453 73.98 L 407 99.79 C 405.76 100.49 404.24 100.49 403 99.79 L 357 73.98 C 356.37 73.51 356 72.78 356 72 C 356 71.21 356.37 70.48 357 70.01 L 403 44.2 C 404.24 43.5 405.76 43.5 407 44.2 Z" fill="#ffffff" stroke="#000000" stroke-width="2" stroke-miterlimit="10"/><g text-anchor="middle" font-size="14px" font-family="Verdana" fill="#000000"><text x="405" y="77.25">Save</text></g><path d="M 354.88 72 L 347.88 75.5 L 349.63 72 L 347.88 68.5 Z" fill="#000000" stroke="#000000" stroke-miterlimit="10"/><path d="M 310 72 L 349.63 72" shape-rendering="crispEdges" fill="none" stroke="#000000" stroke-miterlimit="10"/><path d="M 541.73 0 L 588.27 0 C 608.55 0 625 15.67 625 35 C 625 54.33 608.55 70 588.27 70 L 541.73 70 C 521.45 70 505 54.33 505 35 C 505 15.67 521.45 0 541.73 0 Z" fill="#ffffff" stroke="#000000" stroke-width="2" stroke-miterlimit="10"/><g text-anchor="middle" font-size="14px" font-family="Verdana" fill="#000000"><text x="565" y="21.75">Save</text><text x="565" y="39.95">to</text><text x="565" y="58.15">Loaded File</text></g><path d="M 541.73 85 L 588.27 85 C 608.55 85 625 99.55 625 117.5 C 625 135.45 608.55 150 588.27 150 L 541.73 150 C 521.45 150 505 135.45 505 117.5 C 505 99.55 521.45 85 541.73 85 Z" fill="#ffffff" stroke="#000000" stroke-width="2" stroke-miterlimit="10"/><g text-anchor="middle" font-size="12px" font-family="Verdana" fill="#000000"><text x="565" y="103.5">Save</text><text x="565" y="119.1">to</text><text x="565" y="134.7">New File</text></g><path d="M 503.91 49.13 L 497.88 54.11 L 498.8 50.31 L 496.3 47.29 Z" fill="#000000" stroke="#000000" stroke-miterlimit="10"/><path d="M 454 60.67 L 498.8 50.31" fill="none" stroke="#000000" stroke-miterlimit="10"/><path d="M 503.92 100.13 L 496.23 101.58 L 498.87 98.7 L 498.15 94.85 Z" fill="#000000" stroke="#000000" stroke-miterlimit="10"/><path d="M 454 85.93 L 498.87 98.7" fill="none" stroke="#000000" stroke-miterlimit="10"/></svg>