<svg xmlns="http://www.w3.org/2000/svg" width="869px" height="376px" version="1.1"><defs/><path d="M 232.55 316 L 286.45 316 C 309.95 316 329 329.43 329 346 C 329 362.57 309.95 376 286.45 376 L 232.55 376 C 209.05 376 190 362.57 190 346 C 190 329.43 209.05 316 232.55 316 Z" fill="#ffffff" stroke="#000000" stroke-width="2" stroke-miterlimit="10"/><g text-anchor="middle" font-size="24px" font-family="Verdana" fill="#000000"><text x="259.5" y="358.75">Collapsed</text></g><path d="M 232.55 59 L 286.45 59 C 309.95 59 329 72.43 329 89 C 329 105.57 309.95 119 286.45 119 L 232.55 119 C 209.05 119 190 105.57 190 89 C 190 72.43 209.05 59 232.55 59 Z" fill="#ffffff" stroke="#000000" stroke-width="2" stroke-miterlimit="10"/><g text-anchor="middle" font-size="24px" font-family="Verdana" fill="#000000"><text x="259.5" y="101.75">Expanded</text></g><path d="M 71.82 179.95 L 136.59 214.81 C 137.48 215.44 138 216.44 138 217.49 C 138 218.55 137.48 219.54 136.59 220.17 L 71.82 255.03 C 70.07 255.99 67.93 255.99 66.18 255.03 L 1.41 220.17 C 0.52 219.54 0 218.55 0 217.49 C 0 216.44 0.52 215.44 1.41 214.81 L 66.18 179.95 C 67.93 178.99 70.07 178.99 71.82 179.95 Z" fill="#ffffff" stroke="#000000" stroke-width="2" stroke-miterlimit="10"/><g text-anchor="middle" font-size="24px" font-family="Verdana" fill="#000000"><text x="69" y="230.25">Start</text></g><path d="M 214.1 119.63 L 210.25 126.44 L 209.75 122.56 L 206.34 120.64 Z" fill="#000000" stroke="#000000" stroke-miterlimit="10"/><path d="M 126.08 179 L 209.75 122.56" fill="none" stroke="#000000" stroke-miterlimit="10"/><path d="M 214.1 315.37 L 206.34 314.36 L 209.75 312.44 L 210.25 308.56 Z" fill="#000000" stroke="#000000" stroke-miterlimit="10"/><path d="M 126.08 256 L 209.75 312.44" fill="none" stroke="#000000" stroke-miterlimit="10"/><path d="M 480 40 L 430 40 L 430 138 L 480 138" shape-rendering="crispEdges" fill="none" stroke="#000000" stroke-width="2" stroke-miterlimit="10"/><path d="M 380 89 L 430 89" shape-rendering="crispEdges" fill="none" stroke="#000000" stroke-width="2" stroke-miterlimit="10"/><path d="M 480 138 L 430 138 L 430 236 L 480 236" shape-rendering="crispEdges" fill="none" stroke="#000000" stroke-width="2" stroke-miterlimit="10"/><path d="M 480 236 L 430 236 L 430 334 L 480 334" shape-rendering="crispEdges" fill="none" stroke="#000000" stroke-width="2" stroke-miterlimit="10"/><path d="M 628.16 0 L 701.84 0 C 733.96 0 760 17.91 760 40 C 760 62.09 733.96 80 701.84 80 L 628.16 80 C 596.04 80 570 62.09 570 40 C 570 17.91 596.04 0 628.16 0 Z" fill="#ffffff" stroke="#000000" stroke-width="2" stroke-miterlimit="10"/><g text-anchor="middle" font-size="24px" font-family="Verdana" fill="#000000"><text x="665" y="36.75">Notes</text><text x="665" y="67.95">Focused</text></g><path d="M 378.88 89 L 371.88 92.5 L 373.63 89 L 371.88 85.5 Z" fill="#000000" stroke="#000000" stroke-miterlimit="10"/><path d="M 329 89 L 373.63 89" shape-rendering="crispEdges" fill="none" stroke="#000000" stroke-miterlimit="10"/><path d="M 634.29 98 L 715.71 98 C 751.22 98 780 115.91 780 138 C 780 160.09 751.22 178 715.71 178 L 634.29 178 C 598.78 178 570 160.09 570 138 C 570 115.91 598.78 98 634.29 98 Z" fill="#ffffff" stroke="#000000" stroke-width="2" stroke-miterlimit="10"/><g text-anchor="middle" font-size="24px" font-family="Verdana" fill="#000000"><text x="675" y="134.75">Management</text><text x="675" y="165.95">Focused</text></g><path d="M 634.29 196 L 715.71 196 C 751.22 196 780 213.91 780 236 C 780 258.09 751.22 276 715.71 276 L 634.29 276 C 598.78 276 570 258.09 570 236 C 570 213.91 598.78 196 634.29 196 Z" fill="#ffffff" stroke="#000000" stroke-width="2" stroke-miterlimit="10"/><g text-anchor="middle" font-size="24px" font-family="Verdana" fill="#000000"><text x="675" y="232.75">Reports</text><text x="675" y="263.95">Focused</text></g><path d="M 634.29 294 L 715.71 294 C 751.22 294 780 311.91 780 334 C 780 356.09 751.22 374 715.71 374 L 634.29 374 C 598.78 374 570 356.09 570 334 C 570 311.91 598.78 294 634.29 294 Z" fill="#ffffff" stroke="#000000" stroke-width="2" stroke-miterlimit="10"/><g text-anchor="middle" font-size="24px" font-family="Verdana" fill="#000000"><text x="675" y="330.75">Configuration</text><text x="675" y="361.95">Focused</text></g><g font-size="12px" font-family="Verdana" fill="#000000"><text x="803" y="143">Edit Notes</text></g><path d="M 761.12 40 L 768.12 36.5 L 766.37 40 L 768.12 43.5 Z" fill="#000000" stroke="#000000" stroke-miterlimit="10"/><path d="M 840 126 L 840 50 C 840 40 840 40 830 40 L 766.37 40" fill="none" stroke="#000000" stroke-miterlimit="10"/><g font-size="12px" font-family="Verdana" fill="#000000"><text x="483" y="44">Tab1</text></g><g font-size="12px" font-family="Verdana" fill="#000000"><text x="483" y="142">Tab2</text></g><g font-size="12px" font-family="Verdana" fill="#000000"><text x="483" y="240">Tab3</text></g><g font-size="12px" font-family="Verdana" fill="#000000"><text x="483" y="338">Tab4</text></g><path d="M 568.88 40 L 561.88 43.5 L 563.63 40 L 561.88 36.5 Z" fill="#000000" stroke="#000000" stroke-miterlimit="10"/><path d="M 520 40 L 563.63 40" shape-rendering="crispEdges" fill="none" stroke="#000000" stroke-miterlimit="10"/><path d="M 568.88 138 L 561.88 141.5 L 563.63 138 L 561.88 134.5 Z" fill="#000000" stroke="#000000" stroke-miterlimit="10"/><path d="M 520 138 L 563.63 138" shape-rendering="crispEdges" fill="none" stroke="#000000" stroke-miterlimit="10"/><path d="M 568.88 236 L 561.88 239.5 L 563.63 236 L 561.88 232.5 Z" fill="#000000" stroke="#000000" stroke-miterlimit="10"/><path d="M 520 236 L 563.63 236" shape-rendering="crispEdges" fill="none" stroke="#000000" stroke-miterlimit="10"/><path d="M 568.88 334 L 561.88 337.5 L 563.63 334 L 561.88 330.5 Z" fill="#000000" stroke="#000000" stroke-miterlimit="10"/><path d="M 520 334 L 563.63 334" shape-rendering="crispEdges" fill="none" stroke="#000000" stroke-miterlimit="10"/></svg>