<svg xmlns="http://www.w3.org/2000/svg" width="320px" height="272px" version="1.1"><defs/><path d="M 67.65 120.83 L 128.67 151.16 C 129.51 151.71 130 152.58 130 153.49 C 130 154.41 129.51 155.28 128.67 155.83 L 67.65 186.16 C 66.01 186.99 63.99 186.99 62.35 186.16 L 1.33 155.83 C 0.49 155.28 0 154.41 0 153.49 C 0 152.58 0.49 151.71 1.33 151.16 L 62.35 120.83 C 63.99 119.99 66.01 119.99 67.65 120.83 Z" fill="#ffffff" stroke="#000000" stroke-width="2" stroke-miterlimit="10"/><g text-anchor="middle" font-size="24px" font-family="Verdana" fill="#000000"><text x="65" y="166.25">Start</text></g><path d="M 229.8 0 L 280.2 0 C 302.18 0 320 13.43 320 30 C 320 46.57 302.18 60 280.2 60 L 229.8 60 C 207.82 60 190 46.57 190 30 C 190 13.43 207.82 0 229.8 0 Z" fill="#ffffff" stroke="#000000" stroke-width="2" stroke-miterlimit="10"/><g text-anchor="middle" font-size="24px" font-family="Verdana" fill="#000000"><text x="255" y="42.75">Running</text></g><path d="M 229.8 215.25 L 280.2 215.25 C 302.18 215.25 320 227.9 320 243.5 C 320 259.1 302.18 271.75 280.2 271.75 L 229.8 271.75 C 207.82 271.75 190 259.1 190 243.5 C 190 227.9 207.82 215.25 229.8 215.25 Z" fill="#ffffff" stroke="#000000" stroke-width="2" stroke-miterlimit="10"/><g text-anchor="middle" font-size="24px" font-family="Verdana" fill="#000000"><text x="255" y="256.25">Paused</text></g><g font-size="12px" font-family="Verdana" fill="#000000"><text x="103" y="204">Pause</text></g><path d="M 188.94 222.21 L 181.2 223.4 L 183.94 220.6 L 183.35 216.73 Z" fill="#000000" stroke="#000000" stroke-miterlimit="10"/><path d="M 140 206.44 L 183.94 220.6" fill="none" stroke="#000000" stroke-miterlimit="10"/><g font-size="12px" font-family="Verdana" fill="#000000"><text x="103" y="117">Resume</text></g><path d="M 205.25 60.59 L 201.12 67.23 L 200.78 63.34 L 197.46 61.27 Z" fill="#000000" stroke="#000000" stroke-miterlimit="10"/><path d="M 140 100.7 L 200.78 63.34" fill="none" stroke="#000000" stroke-miterlimit="10"/></svg>