<svg xmlns="http://www.w3.org/2000/svg" width="550px" height="375px" version="1.1"><defs/><path d="M 140.51 111.98 L 267.24 184.41 C 268.98 185.73 270 187.79 270 189.99 C 270 192.18 268.98 194.24 267.24 195.56 L 140.51 267.99 C 137.1 269.98 132.9 269.98 129.49 267.99 L 2.76 195.56 C 1.02 194.24 0 192.18 0 189.99 C 0 187.79 1.02 185.73 2.76 184.41 L 129.49 111.98 C 132.9 109.99 137.1 109.99 140.51 111.98 Z" fill="#ffffff" stroke="#000000" stroke-width="2" stroke-miterlimit="10"/><g text-anchor="middle" font-size="18px" font-family="Verdana" fill="#000000"><text x="135" y="198.5">Reports Focused</text></g><path d="M 415.1 0 L 484.9 0 C 515.33 0 540 20.15 540 45 C 540 69.85 515.33 90 484.9 90 L 415.1 90 C 384.67 90 360 69.85 360 45 C 360 20.15 384.67 0 415.1 0 Z" fill="#ffffff" stroke="#000000" stroke-width="2" stroke-miterlimit="10"/><g text-anchor="middle" font-size="18px" font-family="Verdana" fill="#000000"><text x="450" y="41.75">Report</text><text x="450" y="65.15">Generated</text></g><path d="M 425.1 290 L 494.9 290 C 525.33 290 550 309.03 550 332.5 C 550 355.97 525.33 375 494.9 375 L 425.1 375 C 394.67 375 370 355.97 370 332.5 C 370 309.03 394.67 290 425.1 290 Z" fill="#ffffff" stroke="#000000" stroke-width="2" stroke-miterlimit="10"/><g text-anchor="middle" font-size="18px" font-family="Verdana" fill="#000000"><text x="460" y="329.25">Report</text><text x="460" y="352.65">Cleared</text></g><g font-size="14px" font-family="Verdana" fill="#000000"><text x="273" y="145.75">Generate</text></g><g font-size="14px" font-family="Verdana" fill="#000000"><text x="273" y="240.75">Clear</text></g><path d="M 386.42 289.44 L 378.61 288.92 L 381.89 286.78 L 382.15 282.88 Z" fill="#000000" stroke="#000000" stroke-miterlimit="10"/><path d="M 310 244.71 L 381.89 286.78" fill="none" stroke="#000000" stroke-miterlimit="10"/><path d="M 371.61 90.56 L 367.32 97.11 L 367.08 93.2 L 363.8 91.05 Z" fill="#000000" stroke="#000000" stroke-miterlimit="10"/><path d="M 310 126.38 L 367.08 93.2" fill="none" stroke="#000000" stroke-miterlimit="10"/></svg>